<?xml version="1.0" encoding="UTF-8"?> <svg xmlns="http://www.w3.org/2000/svg" id="Capa_1" data-name="Capa 1" viewBox="0 0 1080 1080"><defs><style>.cls-1{fill:#0f4c57;stroke:#104c57;stroke-miterlimit:10;}</style></defs><path class="cls-1" d="M524.44,957.21c0-13-.35-26,.14-38.92.24-6.32-2-10-7.18-13.48-52.65-35.68-98.35-78.49-133.95-131.59-35.24-52.58-58.11-110.1-66.34-172.83-20.39-155.33,17.11-296.82,105-425.37A383.87,383.87,0,0,1,526.93,71.38C538,64,541.48,64,552.78,71.65,615,113.6,659.92,170.58,695.1,235.86a606.74,606.74,0,0,1,64.45,189c14.86,89,12.42,177-19.6,262.69-26.1,69.78-68.76,128-125,176.33-17.05,14.66-35.42,27.83-53.53,41.2-4.73,3.49-6.83,6.77-6.76,12.78.35,26.87.58,53.77-.27,80.62-.16,5.09-4.34,11.8-8.69,14.47-3.54,2.18-11.21,1-15-1.59-3.5-2.41-5.72-8.67-6-13.38C524,984.43,524.46,970.81,524.44,957.21ZM348.67,453.33l-3.77.24c-.76,30.08-1.79,60.16-2,90.24,0,4.52,2.66,10.14,5.92,13.43q83.48,84.16,167.45,167.81c2.07,2.07,4.32,4,8.16,7.48v-10c0-28.4.29-56.81-.28-85.19A23,23,0,0,0,518,623.07c-24.54-25.22-49.59-50-74.47-74.83Zm388.89,60.21a33.9,33.9,0,0,0-3.84,2.55Q646.24,603.48,558.94,691c-2.44,2.45-3.88,7-3.92,10.54-.31,29.63-.19,59.27-.14,88.91a68.57,68.57,0,0,0,.8,7.06c3.39-3.25,5.85-5.51,8.21-7.86Q641.18,712.43,718.31,635a37.52,37.52,0,0,0,9.37-17.09C735.47,584.12,737.37,549.72,737.56,513.54ZM720.38,383a44.78,44.78,0,0,0-4.34,3q-78.67,78.6-157.17,157.38c-2.42,2.45-3.82,7-3.85,10.58-.3,29.65-.19,59.31-.14,89a44.57,44.57,0,0,0,.85,6,10.71,10.71,0,0,0,2.37-1.2q86.56-86.45,173-173c1.86-1.87,3.36-5.51,3-8C729.82,439.2,725.17,411.9,720.38,383Zm-196,201.54v-10.6c0-27.8-.19-55.61.15-83.42.08-6.43-2-10.85-6.44-15.31q-68-67.63-135.75-135.59c-2.13-2.14-4.41-4.13-8-7.45-6.95,26.38-13.77,51.3-19.82,76.4-.76,3.18,1.49,8.32,4,10.88Q438,499.35,517.75,578.82C519.38,580.45,521.26,581.83,524.43,584.52Zm0,287.68c0-30.53-.19-58.56.15-86.58.07-6.41-1.91-10.85-6.41-15.32q-81.1-80.7-161.9-161.69c-2.13-2.13-4.39-4.12-7.85-7.35C368.34,717.22,429.64,804.1,524.43,872.2Zm30.42-371.51,3.48,2.39c1.79-2.79,3.15-6,5.44-8.3,42.48-42.66,84.42-85.9,128-127.38,14.07-13.38,18.58-24.57,9.55-42.27-8.15-16-13.76-33.23-20.56-50.11a21.15,21.15,0,0,0-2.93,1.7Q618.21,336.27,558.74,396c-2.42,2.44-3.67,7-3.73,10.65-.33,22.23-.16,44.46-.16,66.69Zm-31.92-65.06c.73-1.06,1.33-1.52,1.33-2,.08-31.79.23-63.59,0-95.39,0-2.91-2-6.44-4.17-8.61q-46.62-47-93.59-93.72c-1.27-1.27-2.78-2.29-5.59-4.58-10.28,21.17-20,41.73-30.28,62-2.92,5.74-2,8.94,2.44,13.33Q455.23,368.26,517,430.3C518.83,432.16,520.9,433.82,522.93,435.63ZM624.82,182c-23,23-45.11,45-66.89,67.2-2,2.05-2.91,6-2.95,9.06-.26,18.83-.13,37.66-.13,56.49v38.06L664.54,243C652.05,223.83,638.67,203.25,624.82,182ZM523.63,287.9V112a408,408,0,0,0-83.73,91.88C468.14,232.21,495.58,259.75,523.63,287.9Zm178,411.45-4.2-4.06c-1.53,3.05-2.39,6.76-4.68,9.06-42,42.24-83.5,84.95-126.58,126-13.07,12.46-11.6,25.27-10.55,41.45C619.31,825.48,670.08,770.51,701.59,699.35ZM604.34,156.89,555.71,111v94.49Z"></path></svg> 